<?xml version="1.0" standalone="no"?>
<!DOCTYPE svg PUBLIC "-//W3C//DTD SVG 20010904//EN"
 "http://www.w3.org/TR/2001/REC-SVG-20010904/DTD/svg10.dtd">
<svg version="1.0" xmlns="http://www.w3.org/2000/svg"
 width="512.000000pt" height="512.000000pt" viewBox="0 0 512.000000 512.000000"
 preserveAspectRatio="xMidYMid meet">
<metadata>
Created by potrace 1.14, written by Peter Selinger 2001-2017
</metadata>
<g transform="translate(0.000000,512.000000) scale(0.100000,-0.100000)"
fill="#000000" stroke="none">
<path d="M2332 5109 c-132 -12 -266 -36 -417 -74 -314 -80 -630 -233 -904
-438 -124 -92 -396 -364 -488 -488 -151 -201 -289 -456 -371 -684 -116 -320
-168 -693 -144 -1028 25 -359 102 -644 257 -962 136 -279 260 -450 490 -680
230 -230 401 -354 680 -490 318 -155 603 -232 962 -257 335 -24 708 28 1028
144 228 82 483 220 684 371 124 92 396 364 488 488 151 201 289 456 371 684
116 320 168 693 144 1027 -25 360 -102 645 -257 963 -136 279 -260 450 -490
680 -230 231 -401 354 -680 490 -182 89 -308 136 -480 180 -296 76 -583 100
-873 74z m754 -1235 c61 -26 118 -68 294 -220 190 -163 315 -289 354 -355 45
-78 83 -198 95 -299 6 -52 16 -138 22 -190 6 -52 9 -162 7 -245 -6 -230 -53
-372 -176 -535 -31 -41 -59 -77 -62 -80 -3 -3 -23 -27 -45 -55 -208 -260 -507
-485 -755 -568 -217 -72 -286 -78 -916 -84 l-541 -5 -21 27 c-27 34 -39 74
-57 190 -26 161 -15 364 26 507 34 116 -4 107 434 111 209 3 387 8 396 11 11
5 20 31 29 84 31 194 120 409 240 582 76 109 211 322 241 380 23 43 24 52 21
236 l-3 191 29 31 c18 20 43 33 68 37 62 10 64 12 64 55 0 75 55 169 113 194
43 19 97 19 143 0z"/>
<path d="M3112 3244 c1 -68 -4 -118 -16 -159 -38 -133 -76 -312 -76 -363 0
-43 6 -62 28 -93 15 -21 32 -39 39 -39 6 0 40 16 75 36 181 105 173 99 170
125 -12 88 -12 150 -1 197 l13 54 -32 25 c-46 36 -120 143 -157 229 -18 41
-35 78 -38 81 -3 3 -5 -39 -5 -93z"/>
</g>
</svg>
